<?xml version="1.0" encoding="UTF-8" standalone="no" ?>
<!DOCTYPE svg PUBLIC "-//W3C//DTD SVG 1.1//EN" "http://www.w3.org/Graphics/SVG/1.1/DTD/svg11.dtd">
<svg xmlns="http://www.w3.org/2000/svg" xmlns:xlink="http://www.w3.org/1999/xlink" version="1.1" width="1280" height="1024" viewBox="0 0 1280 1024" xml:space="preserve">
<desc>Created with Fabric.js 5.3.0</desc>
<defs>
</defs>
<g transform="matrix(1 0 0 1 640 512)" id="background-logo"  >
<rect style="stroke: none; stroke-width: 0; stroke-dasharray: none; stroke-linecap: butt; stroke-dashoffset: 0; stroke-linejoin: miter; stroke-miterlimit: 4; fill: rgb(255,255,255); fill-opacity: 0; fill-rule: nonzero; opacity: 1;"  paint-order="stroke"  x="-640" y="-512" rx="0" ry="0" width="1280" height="1024" />
</g>
<g transform="matrix(1.9211538461538462 0 0 1.9211538461538462 355.4149335815978 442.56926927165927)" id="tagline-2619fc7c-e4a9-4d1e-9b8c-e24c023b51d3-logo"  >
<g style=""  paint-order="stroke"   >
		<g transform="matrix(1 0 0 1 0 0)" id="tagline-2619fc7c-e4a9-4d1e-9b8c-e24c023b51d3-logo-path-0"  >
<path style="stroke: none; stroke-width: 0; stroke-dasharray: none; stroke-linecap: butt; stroke-dashoffset: 0; stroke-linejoin: miter; stroke-miterlimit: 4; fill: rgb(66,66,66); fill-rule: nonzero; opacity: 1;"  paint-order="stroke"  transform=" translate(-47.775000000000006, 68.25)" d="M 80.14 0 L 90.09 0 L 52.65 -136.5 L 42.9 -136.5 L 5.46 0 L 15.41 0 L 41.34 -94.97 C 44.27 -105.69 45.44 -116.81 47.58 -127.73 L 47.97 -127.73 C 50.12 -116.81 51.29 -105.69 54.21 -94.97 L 67.67 -45.24 L 28.67 -45.24 L 32.56 -36.27 L 70.2 -36.27 Z" stroke-linecap="round" />
</g>
</g>
</g>
<g transform="matrix(1.9211538461538462 0 0 1.9211538461538462 522.5739386868324 600.7637364267636)" id="text-logo"  >
<g style=""  paint-order="stroke"   >
		<g transform="matrix(1 0 0 1 0 0)" id="text-logo-path-0"  >
<path style="stroke: none; stroke-width: 0; stroke-dasharray: none; stroke-linecap: butt; stroke-dashoffset: 0; stroke-linejoin: miter; stroke-miterlimit: 4; fill: rgb(66,66,66); fill-rule: nonzero; opacity: 1;"  paint-order="stroke"  transform=" translate(0, 0)" d="" stroke-linecap="round" />
</g>
</g>
</g>
<g transform="matrix(1.9211538461538462 0 0 1.9211538461538462 809.269493880421 396.01503861691464)" id="tagline-e73ecaaa-0e33-4d72-9283-8771117c3e0b-logo"  >
<g style=""  paint-order="stroke"   >
		<g transform="matrix(1 0 0 1 0 0)" id="tagline-e73ecaaa-0e33-4d72-9283-8771117c3e0b-logo-path-0"  >
<path style="stroke: none; stroke-width: 0; stroke-dasharray: none; stroke-linecap: butt; stroke-dashoffset: 0; stroke-linejoin: miter; stroke-miterlimit: 4; fill: rgb(66,66,66); fill-rule: nonzero; opacity: 1;"  paint-order="stroke"  transform=" translate(0, 0)" d="" stroke-linecap="round" />
</g>
</g>
</g>
<g transform="matrix(2.536340865193974 0 0 2.536340865193974 402.65074027855417 456.0033217716592)" id="shape-6e4a290a-db10-493a-8795-2cb33523c412"  >
<g style=""  paint-order="stroke"   >
		<g transform="matrix(1 0 0 1 0 0)" id="Layer_1"  >
<path style="stroke: none; stroke-width: 1; stroke-dasharray: none; stroke-linecap: butt; stroke-dashoffset: 0; stroke-linejoin: miter; stroke-miterlimit: 4; fill: rgb(66,66,66); fill-rule: nonzero; opacity: 1;"  paint-order="stroke"  transform=" translate(-100, -100)" d="M 193.6 200 L 6.4 200 C 2.8676609342048587 199.9944936157441 0.005506384255905772 197.13233906579512 0 193.6 L 0 6.4 C 0.005506384255909812 2.8676609342048622 2.867660934204863 0.005506384255910213 6.400000000000001 8.881784197001252e-16 L 193.6 0 C 197.13233906579512 0.005506384255904895 199.9944936157441 2.8676609342048587 200 6.4 L 200 193.6 C 199.9944936157441 197.13233906579515 197.13233906579515 199.9944936157441 193.6 200 Z M 6.4 3 C 4.531254575663674 3.021606150930564 3.0216061509305634 4.531254575663674 3 6.4 L 3 193.6 C 3.0216061509305607 195.46874542433633 4.531254575663671 196.97839384906945 6.4 197 L 193.6 197 C 195.46874542433633 196.97839384906945 196.97839384906945 195.46874542433633 197 193.6 L 197 6.4 C 196.97839384906945 4.531254575663671 195.46874542433633 3.02160615093056 193.6 3 Z" stroke-linecap="round" />
</g>
</g>
</g>
<g transform="matrix(2.610866100702437 0 0 2.610866100702437 841.2895687168245 308.50590457845306)" id="shape-0bf7579d-2845-4323-b5ea-cba58967dc42"  >
<g style=""  paint-order="stroke"   >
		<g transform="matrix(1 0 0 1 0 0)" id="Layer_1"  >
<path style="stroke: none; stroke-width: 1; stroke-dasharray: none; stroke-linecap: butt; stroke-dashoffset: 0; stroke-linejoin: miter; stroke-miterlimit: 4; fill: rgb(66,66,66); fill-rule: nonzero; opacity: 1;"  paint-order="stroke"  transform=" translate(-100, -100)" d="M 193.6 200 L 6.4 200 C 2.8676609342048587 199.9944936157441 0.005506384255905772 197.13233906579512 0 193.6 L 0 6.4 C 0.005506384255909812 2.8676609342048622 2.867660934204863 0.005506384255910213 6.400000000000001 8.881784197001252e-16 L 193.6 0 C 197.13233906579512 0.005506384255904895 199.9944936157441 2.8676609342048587 200 6.4 L 200 193.6 C 199.9944936157441 197.13233906579515 197.13233906579515 199.9944936157441 193.6 200 Z M 6.4 3 C 4.531254575663674 3.021606150930564 3.0216061509305634 4.531254575663674 3 6.4 L 3 193.6 C 3.0216061509305607 195.46874542433633 4.531254575663671 196.97839384906945 6.4 197 L 193.6 197 C 195.46874542433633 196.97839384906945 196.97839384906945 195.46874542433633 197 193.6 L 197 6.4 C 196.97839384906945 4.531254575663671 195.46874542433633 3.02160615093056 193.6 3 Z" stroke-linecap="round" />
</g>
</g>
</g>
<g transform="matrix(2.0762053316838376 0 0 2.0762053316838376 747.4243956199153 685.3278086302576)" id="shape-0d7ed722-c5d7-48d0-9562-3c99b6671692"  >
<g style=""  paint-order="stroke"   >
		<g transform="matrix(1 0 0 1 0 0)" id="path-01_00000031913262639200682300000017581655119853003165_"  >
<path style="stroke: none; stroke-width: 1; stroke-dasharray: none; stroke-linecap: butt; stroke-dashoffset: 0; stroke-linejoin: miter; stroke-miterlimit: 4; fill: rgb(176,188,204); fill-rule: nonzero; opacity: 1;"  paint-order="stroke"  transform=" translate(-125, -125)" d="M 243.29929 182.50085 L 250 182.50085 L 250 250 L 182.50081 250 L 182.50081 243.29932 L 243.29928999999998 243.29932 L 243.29928999999998 182.50085 z M 125.03818 250 L 165.7587 250 L 165.7587 243.29932 L 125.03818000000001 243.29932 L 125.03818000000001 250 z M 6.70073 182.50085 L 0 182.50085 L 0 250 L 67.49919 250 L 67.49919 243.29932 L 6.70073 243.29932 L 6.70073 182.50085 z M 6.70073 125.03821 L 0 125.03821 L 0 165.75867 L 6.70073 165.75867 L 6.70073 125.03821 z M 0 67.49915 L 6.70073 67.49915 L 6.70073 6.70068 L 67.49919 6.70068 L 67.49919 0 L 0 0 L 0 67.49915 z M 84.2401 6.70068 L 124.96062 6.70068 L 124.96062 0 L 84.2401 0 L 84.2401 6.70068 z M 182.50081 0 L 182.50081 6.70068 L 243.29928999999998 6.70068 L 243.29928999999998 67.49914 L 250 67.49914 L 250 0 L 182.50081 0 z M 243.29929 124.96057 L 250 124.96057 L 250 84.24011 L 243.29929 84.24011 L 243.29929 124.96057 z" stroke-linecap="round" />
</g>
</g>
</g>
<g transform="matrix(1.9211538461538462 0 0 1.9211538461538462 773.5419856804167 706.5598468633035)" id="tagline-9927bb3f-c124-4300-b9d3-ef8228e43c96-logo"  >
<g style=""  paint-order="stroke"   >
		<g transform="matrix(1 0 0 1 0 0)" id="tagline-9927bb3f-c124-4300-b9d3-ef8228e43c96-logo-path-0"  >
<path style="stroke: none; stroke-width: 0; stroke-dasharray: none; stroke-linecap: butt; stroke-dashoffset: 0; stroke-linejoin: miter; stroke-miterlimit: 4; fill: rgb(176,188,204); fill-rule: nonzero; opacity: 1;"  paint-order="stroke"  transform=" translate(-56.025000000000006, 60.72)" d="M 56.67 -123.28 L 56.67 -123.28 Q 90.34 -123.28 102.49 -96.42 L 102.49 -96.42 L 94.76 -90.53 Q 89.42 -103.41 79.76 -109.11 Q 70.1 -114.82 55.94 -114.82 L 55.94 -114.82 Q 39.56 -114.82 30.91 -107.55 Q 22.26 -100.28 22.26 -89.79 L 22.26 -89.79 Q 22.26 -81.33 27.69 -75.81 Q 33.12 -70.29 48.02 -66.98 L 48.02 -66.98 L 71.76 -61.82 Q 89.42 -57.96 96.78 -50.69 Q 104.14 -43.42 104.14 -32.02 L 104.14 -32.02 Q 104.14 -22.08 98.44 -14.44 Q 92.74 -6.81 82.52 -2.48 Q 72.31 1.84 58.7 1.84 L 58.7 1.84 Q 39.19 1.84 26.04 -5.98 Q 12.88 -13.8 7.91 -27.6 L 7.91 -27.6 L 16.01 -33.86 Q 19.87 -20.79 31.19 -13.71 Q 42.5 -6.62 59.06 -6.62 L 59.06 -6.62 Q 74.52 -6.62 84.55 -12.97 Q 94.58 -19.32 94.58 -31.46 L 94.58 -31.46 Q 94.58 -39.01 89.06 -44.34 Q 83.54 -49.68 69.92 -52.62 L 69.92 -52.62 L 44.9 -58.14 Q 27.42 -62.01 19.96 -69.64 Q 12.51 -77.28 12.51 -88.69 L 12.51 -88.69 Q 12.51 -98.07 17.85 -105.89 Q 23.18 -113.71 33.03 -118.5 Q 42.87 -123.28 56.67 -123.28 Z" stroke-linecap="round" />
</g>
</g>
</g>
<g transform="matrix(1.9211538461538462 0 0 1.9211538461538462 900.5199669240383 257.369308463967)" id="tagline-a05bf2e4-88cd-4b23-acbb-891141fa9113-logo"  >
<g style=""  paint-order="stroke"   >
		<g transform="matrix(1 0 0 1 0 0)" id="tagline-a05bf2e4-88cd-4b23-acbb-891141fa9113-logo-path-0"  >
<path style="stroke: none; stroke-width: 0; stroke-dasharray: none; stroke-linecap: butt; stroke-dashoffset: 0; stroke-linejoin: miter; stroke-miterlimit: 4; fill: rgb(66,66,66); fill-rule: nonzero; opacity: 1;"  paint-order="stroke"  transform=" translate(-60.075, 58.74)" d="M 101.64 0 L 18.51 0 L 18.51 -117.48 L 98.79 -117.48 L 98.79 -109.29 L 27.41 -109.29 L 27.41 -63.9 L 83.84 -63.9 L 83.84 -55.54 L 27.41 -55.54 L 27.41 -8.19 L 101.64 -8.19 L 101.64 0 Z" stroke-linecap="round" />
</g>
</g>
</g>
<g transform="matrix(0 -1.505094195356117 -1.505094195356117 0 231.78840354941786 445.5637833480621)" id="shape-6078f027-ffb0-4ad7-9cb9-c993bce4681a"  >
<g style=""  paint-order="stroke"   >
		<g transform="matrix(1 0 0 1 0 0)" id="Layer_1"  >
<path style="stroke: none; stroke-width: 1; stroke-dasharray: none; stroke-linecap: butt; stroke-dashoffset: 0; stroke-linejoin: miter; stroke-miterlimit: 4; fill: rgb(66,66,66); fill-rule: nonzero; opacity: 1;"  paint-order="stroke"  transform=" translate(-100, -1.5)" d="M 198.5 3 L 1.5 3 C 0.7 3 0 2.3 0 1.5 C 0 0.7000000000000002 0.7 0 1.5 0 L 198.5 0 C 199.3 0 200 0.7 200 1.5 C 200 2.3 199.3 3 198.5 3 z" stroke-linecap="round" />
</g>
</g>
</g>
<g transform="matrix(1.3920624133879445 0 0 -1.392062413387944 402.65074027855417 273.4030730588987)" id="shape-aacb94be-af4b-4934-ba86-f3d7f263f41a"  >
<g style=""  paint-order="stroke"   >
		<g transform="matrix(1 0 0 1 0 0)" id="Layer_1"  >
<path style="stroke: none; stroke-width: 1; stroke-dasharray: none; stroke-linecap: butt; stroke-dashoffset: 0; stroke-linejoin: miter; stroke-miterlimit: 4; fill: rgb(66,66,66); fill-rule: nonzero; opacity: 1;"  paint-order="stroke"  transform=" translate(-100, -1.5)" d="M 198.5 3 L 1.5 3 C 0.7 3 0 2.3 0 1.5 C 0 0.7000000000000002 0.7 0 1.5 0 L 198.5 0 C 199.3 0 200 0.7 200 1.5 C 200 2.3 199.3 3 198.5 3 z" stroke-linecap="round" />
</g>
</g>
</g>
<g transform="matrix(1.354637282038265 0 0 1.354637282038265 754.3698204509811 882.5475045663327)" id="shape-5ddf40ac-3856-422d-8875-1605e51157db"  >
<g style=""  paint-order="stroke"   >
		<g transform="matrix(1 0 0 1 0 0)" id="Layer_1"  >
<path style="stroke: none; stroke-width: 1; stroke-dasharray: none; stroke-linecap: butt; stroke-dashoffset: 0; stroke-linejoin: miter; stroke-miterlimit: 4; fill: rgb(176,188,204); fill-rule: nonzero; opacity: 1;"  paint-order="stroke"  transform=" translate(-100, -1.5)" d="M 198.5 3 L 1.5 3 C 0.7 3 0 2.3 0 1.5 C 0 0.7000000000000002 0.7 0 1.5 0 L 198.5 0 C 199.3 0 200 0.7 200 1.5 C 200 2.3 199.3 3 198.5 3 z" stroke-linecap="round" />
</g>
</g>
</g>
<g transform="matrix(0 -1.6925173877915773 1.6925173877915771 0 919.5069728000678 681.6948197963073)" id="shape-9d53d1b8-9fe8-45e5-ae53-6beabfb00b6f"  >
<g style=""  paint-order="stroke"   >
		<g transform="matrix(1 0 0 1 0 0)" id="Layer_1"  >
<path style="stroke: none; stroke-width: 1; stroke-dasharray: none; stroke-linecap: butt; stroke-dashoffset: 0; stroke-linejoin: miter; stroke-miterlimit: 4; fill: rgb(176,188,204); fill-rule: nonzero; opacity: 1;"  paint-order="stroke"  transform=" translate(-100, -1.5)" d="M 198.5 3 L 1.5 3 C 0.7 3 0 2.3 0 1.5 C 0 0.7000000000000002 0.7 0 1.5 0 L 198.5 0 C 199.3 0 200 0.7 200 1.5 C 200 2.3 199.3 3 198.5 3 z" stroke-linecap="round" />
</g>
</g>
</g>
<g transform="matrix(1.5318538241231314 0 0 1.5318538241231314 841.2895687168245 114.8959180107924)" id="shape-396b639d-93e4-41e3-a498-832cc32f782e"  >
<g style=""  paint-order="stroke"   >
		<g transform="matrix(1 0 0 1 0 0)" id="Layer_1"  >
<path style="stroke: none; stroke-width: 1; stroke-dasharray: none; stroke-linecap: butt; stroke-dashoffset: 0; stroke-linejoin: miter; stroke-miterlimit: 4; fill: rgb(66,66,66); fill-rule: nonzero; opacity: 1;"  paint-order="stroke"  transform=" translate(-100, -1.5)" d="M 198.5 3 L 1.5 3 C 0.7 3 0 2.3 0 1.5 C 0 0.7000000000000002 0.7 0 1.5 0 L 198.5 0 C 199.3 0 200 0.7 200 1.5 C 200 2.3 199.3 3 198.5 3 z" stroke-linecap="round" />
</g>
</g>
</g>
<g transform="matrix(0 -1.768946525557406 1.768946525557406 0 1021.4758490243348 308.50590457845306)" id="shape-19f83678-2d52-417d-81fb-a3c40b901abf"  >
<g style=""  paint-order="stroke"   >
		<g transform="matrix(1 0 0 1 0 0)" id="Layer_1"  >
<path style="stroke: none; stroke-width: 1; stroke-dasharray: none; stroke-linecap: butt; stroke-dashoffset: 0; stroke-linejoin: miter; stroke-miterlimit: 4; fill: rgb(66,66,66); fill-rule: nonzero; opacity: 1;"  paint-order="stroke"  transform=" translate(-100, -1.5)" d="M 198.5 3 L 1.5 3 C 0.7 3 0 2.3 0 1.5 C 0 0.7000000000000002 0.7 0 1.5 0 L 198.5 0 C 199.3 0 200 0.7 200 1.5 C 200 2.3 199.3 3 198.5 3 z" stroke-linecap="round" />
</g>
</g>
</g>
</svg>