<?xml version="1.0" encoding="UTF-8" standalone="no" ?>
<!DOCTYPE svg PUBLIC "-//W3C//DTD SVG 1.1//EN" "http://www.w3.org/Graphics/SVG/1.1/DTD/svg11.dtd">
<svg xmlns="http://www.w3.org/2000/svg" xmlns:xlink="http://www.w3.org/1999/xlink" version="1.1" width="1280" height="1024" viewBox="0 0 1280 1024" xml:space="preserve">
<desc>Created with Fabric.js 5.3.0</desc>
<defs>
</defs>
<g transform="matrix(1 0 0 1 640 512)" id="background-logo"  >
<rect style="stroke: none; stroke-width: 0; stroke-dasharray: none; stroke-linecap: butt; stroke-dashoffset: 0; stroke-linejoin: miter; stroke-miterlimit: 4; fill: rgb(255,255,255); fill-opacity: 0; fill-rule: nonzero; opacity: 1;"  paint-order="stroke"  x="-640" y="-512" rx="0" ry="0" width="1280" height="1024" />
</g>
<g transform="matrix(1.9211538461538462 0 0 1.9211538461538462 398.7586194679832 600.2624653949101)" id="tagline-2619fc7c-e4a9-4d1e-9b8c-e24c023b51d3-logo"  >
<g style=""  paint-order="stroke"   >
		<g transform="matrix(1 0 0 1 0 -95.03300000000002)" id="tagline-2619fc7c-e4a9-4d1e-9b8c-e24c023b51d3-logo-path-0"  >
<path style="stroke: none; stroke-width: 0; stroke-dasharray: none; stroke-linecap: butt; stroke-dashoffset: 0; stroke-linejoin: miter; stroke-miterlimit: 4; fill: rgb(66,66,66); fill-rule: nonzero; opacity: 1;"  paint-order="stroke"  transform=" translate(-35.525, 50.75)" d="M 59.59 0 L 66.99 0 L 39.15 -101.5 L 31.9 -101.5 L 4.06 0 L 11.46 0 L 30.74 -70.61 C 32.91 -78.59 33.78 -86.85 35.38 -94.97 L 35.67 -94.97 C 37.27 -86.85 38.13 -78.59 40.31 -70.61 L 50.31 -33.64 L 21.31 -33.64 L 24.21 -26.97 L 52.2 -26.97 Z" stroke-linecap="round" />
</g>
		<g transform="matrix(1 0 0 1 0 145.78299999999996)" id="tagline-2619fc7c-e4a9-4d1e-9b8c-e24c023b51d3-logo-path-1"  >
<path style="stroke: none; stroke-width: 0; stroke-dasharray: none; stroke-linecap: butt; stroke-dashoffset: 0; stroke-linejoin: miter; stroke-miterlimit: 4; fill: rgb(66,66,66); fill-rule: nonzero; opacity: 1;"  paint-order="stroke"  transform=" translate(0, 0)" d="" stroke-linecap="round" />
</g>
</g>
</g>
<g transform="matrix(1.9211538461538462 0 0 1.9211538461538462 568.067396313364 608.1484200459238)" id="text-logo"  >
<g style=""  paint-order="stroke"   >
		<g transform="matrix(1 0 0 1 0 0)" id="text-logo-path-0"  >
<path style="stroke: none; stroke-width: 0; stroke-dasharray: none; stroke-linecap: butt; stroke-dashoffset: 0; stroke-linejoin: miter; stroke-miterlimit: 4; fill: rgb(66,66,66); fill-rule: nonzero; opacity: 1;"  paint-order="stroke"  transform=" translate(0, 0)" d="" stroke-linecap="round" />
</g>
</g>
</g>
<g transform="matrix(1.9211538461538462 0 0 1.9211538461538462 854.7629515069525 403.3997222360749)" id="tagline-e73ecaaa-0e33-4d72-9283-8771117c3e0b-logo"  >
<g style=""  paint-order="stroke"   >
		<g transform="matrix(1 0 0 1 0 0)" id="tagline-e73ecaaa-0e33-4d72-9283-8771117c3e0b-logo-path-0"  >
<path style="stroke: none; stroke-width: 0; stroke-dasharray: none; stroke-linecap: butt; stroke-dashoffset: 0; stroke-linejoin: miter; stroke-miterlimit: 4; fill: rgb(66,66,66); fill-rule: nonzero; opacity: 1;"  paint-order="stroke"  transform=" translate(0, 0)" d="" stroke-linecap="round" />
</g>
</g>
</g>
<g transform="matrix(1.6925789293573281 0 0 1.6925789293573281 421.9888780574265 430.3687621975125)" id="shape-6e4a290a-db10-493a-8795-2cb33523c412"  >
<g style=""  paint-order="stroke"   >
		<g transform="matrix(1 0 0 1 0 0)" id="Layer_1"  >
<path style="stroke: none; stroke-width: 1; stroke-dasharray: none; stroke-linecap: butt; stroke-dashoffset: 0; stroke-linejoin: miter; stroke-miterlimit: 4; fill: rgb(66,66,66); fill-rule: nonzero; opacity: 1;"  paint-order="stroke"  transform=" translate(-100, -100)" d="M 193.6 200 L 6.4 200 C 2.8676609342048587 199.9944936157441 0.005506384255905772 197.13233906579512 0 193.6 L 0 6.4 C 0.005506384255909812 2.8676609342048622 2.867660934204863 0.005506384255910213 6.400000000000001 8.881784197001252e-16 L 193.6 0 C 197.13233906579512 0.005506384255904895 199.9944936157441 2.8676609342048587 200 6.4 L 200 193.6 C 199.9944936157441 197.13233906579515 197.13233906579515 199.9944936157441 193.6 200 Z M 6.4 3 C 4.531254575663674 3.021606150930564 3.0216061509305634 4.531254575663674 3 6.4 L 3 193.6 C 3.0216061509305607 195.46874542433633 4.531254575663671 196.97839384906945 6.4 197 L 193.6 197 C 195.46874542433633 196.97839384906945 196.97839384906945 195.46874542433633 197 193.6 L 197 6.4 C 196.97839384906945 4.531254575663671 195.46874542433633 3.02160615093056 193.6 3 Z" stroke-linecap="round" />
</g>
</g>
</g>
<g transform="matrix(1.634364120292282 0 0 1.634364120292282 794.7373739171636 359.1075420543983)" id="shape-0bf7579d-2845-4323-b5ea-cba58967dc42"  >
<g style=""  paint-order="stroke"   >
		<g transform="matrix(1 0 0 1 0 0)" id="Layer_1"  >
<path style="stroke: none; stroke-width: 1; stroke-dasharray: none; stroke-linecap: butt; stroke-dashoffset: 0; stroke-linejoin: miter; stroke-miterlimit: 4; fill: rgb(66,66,66); fill-rule: nonzero; opacity: 1;"  paint-order="stroke"  transform=" translate(-100, -100)" d="M 193.6 200 L 6.4 200 C 2.8676609342048587 199.9944936157441 0.005506384255905772 197.13233906579512 0 193.6 L 0 6.4 C 0.005506384255909812 2.8676609342048622 2.867660934204863 0.005506384255910213 6.400000000000001 8.881784197001252e-16 L 193.6 0 C 197.13233906579512 0.005506384255904895 199.9944936157441 2.8676609342048587 200 6.4 L 200 193.6 C 199.9944936157441 197.13233906579515 197.13233906579515 199.9944936157441 193.6 200 Z M 6.4 3 C 4.531254575663674 3.021606150930564 3.0216061509305634 4.531254575663674 3 6.4 L 3 193.6 C 3.0216061509305607 195.46874542433633 4.531254575663671 196.97839384906945 6.4 197 L 193.6 197 C 195.46874542433633 196.97839384906945 196.97839384906945 195.46874542433633 197 193.6 L 197 6.4 C 196.97839384906945 4.531254575663671 195.46874542433633 3.02160615093056 193.6 3 Z" stroke-linecap="round" />
</g>
</g>
</g>
<g transform="matrix(1.349807744464378 0 0 1.349807744464378 663.5116191252254 632.5955743581738)" id="shape-0d7ed722-c5d7-48d0-9562-3c99b6671692"  >
<g style=""  paint-order="stroke"   >
		<g transform="matrix(1 0 0 1 0 0)" id="path-01_00000031913262639200682300000017581655119853003165_"  >
<path style="stroke: none; stroke-width: 1; stroke-dasharray: none; stroke-linecap: butt; stroke-dashoffset: 0; stroke-linejoin: miter; stroke-miterlimit: 4; fill: rgb(169,200,255); fill-rule: nonzero; opacity: 1;"  paint-order="stroke"  transform=" translate(-125, -125)" d="M 243.29929 182.50085 L 250 182.50085 L 250 250 L 182.50081 250 L 182.50081 243.29932 L 243.29928999999998 243.29932 L 243.29928999999998 182.50085 z M 125.03818 250 L 165.7587 250 L 165.7587 243.29932 L 125.03818000000001 243.29932 L 125.03818000000001 250 z M 6.70073 182.50085 L 0 182.50085 L 0 250 L 67.49919 250 L 67.49919 243.29932 L 6.70073 243.29932 L 6.70073 182.50085 z M 6.70073 125.03821 L 0 125.03821 L 0 165.75867 L 6.70073 165.75867 L 6.70073 125.03821 z M 0 67.49915 L 6.70073 67.49915 L 6.70073 6.70068 L 67.49919 6.70068 L 67.49919 0 L 0 0 L 0 67.49915 z M 84.2401 6.70068 L 124.96062 6.70068 L 124.96062 0 L 84.2401 0 L 84.2401 6.70068 z M 182.50081 0 L 182.50081 6.70068 L 243.29928999999998 6.70068 L 243.29928999999998 67.49914 L 250 67.49914 L 250 0 L 182.50081 0 z M 243.29929 124.96057 L 250 124.96057 L 250 84.24011 L 243.29929 84.24011 L 243.29929 124.96057 z" stroke-linecap="round" />
</g>
</g>
</g>
<g transform="matrix(1.9211538461538462 0 0 1.9211538461538462 676.1362470697928 628.847825858174)" id="tagline-9927bb3f-c124-4300-b9d3-ef8228e43c96-logo"  >
<g style=""  paint-order="stroke"   >
		<g transform="matrix(1 0 0 1 0 0)" id="tagline-9927bb3f-c124-4300-b9d3-ef8228e43c96-logo-path-0"  >
<path style="stroke: none; stroke-width: 0; stroke-dasharray: none; stroke-linecap: butt; stroke-dashoffset: 0; stroke-linejoin: miter; stroke-miterlimit: 4; fill: rgb(169,200,255); fill-rule: nonzero; opacity: 1;"  paint-order="stroke"  transform=" translate(-37.455, 40.589999999999996)" d="M 37.88 -82.41 L 37.88 -82.41 Q 60.39 -82.41 68.51 -64.45 L 68.51 -64.45 L 63.34 -60.52 Q 59.78 -69.13 53.32 -72.94 Q 46.86 -76.75 37.39 -76.75 L 37.39 -76.75 Q 26.45 -76.75 20.66 -71.89 Q 14.88 -67.03 14.88 -60.02 L 14.88 -60.02 Q 14.88 -54.37 18.51 -50.68 Q 22.14 -46.99 32.1 -44.77 L 32.1 -44.77 L 47.97 -41.33 Q 59.78 -38.74 64.7 -33.89 Q 69.62 -29.03 69.62 -21.4 L 69.62 -21.4 Q 69.62 -14.76 65.8 -9.66 Q 61.99 -4.55 55.17 -1.66 Q 48.34 1.23 39.24 1.23 L 39.24 1.23 Q 26.2 1.23 17.4 -4 Q 8.61 -9.22 5.29 -18.45 L 5.29 -18.45 L 10.7 -22.63 Q 13.28 -13.9 20.85 -9.16 Q 28.41 -4.43 39.48 -4.43 L 39.48 -4.43 Q 49.81 -4.43 56.52 -8.67 Q 63.22 -12.91 63.22 -21.03 L 63.22 -21.03 Q 63.22 -26.08 59.53 -29.64 Q 55.84 -33.21 46.74 -35.18 L 46.74 -35.18 L 30.01 -38.87 Q 18.33 -41.45 13.35 -46.56 Q 8.36 -51.66 8.36 -59.29 L 8.36 -59.29 Q 8.36 -65.56 11.93 -70.79 Q 15.5 -76.01 22.08 -79.21 Q 28.66 -82.41 37.88 -82.41 Z" stroke-linecap="round" />
</g>
</g>
</g>
<g transform="matrix(1.9211538461538462 0 0 1.9211538461538462 793.3436665631518 339.3705462745364)" id="tagline-a05bf2e4-88cd-4b23-acbb-891141fa9113-logo"  >
<g style=""  paint-order="stroke"   >
		<g transform="matrix(1 0 0 1 0 0)" id="tagline-a05bf2e4-88cd-4b23-acbb-891141fa9113-logo-path-0"  >
<path style="stroke: none; stroke-width: 0; stroke-dasharray: none; stroke-linecap: butt; stroke-dashoffset: 0; stroke-linejoin: miter; stroke-miterlimit: 4; fill: rgb(66,66,66); fill-rule: nonzero; opacity: 1;"  paint-order="stroke"  transform=" translate(-40.5, 39.6)" d="M 68.52 0 L 12.48 0 L 12.48 -79.2 L 66.6 -79.2 L 66.6 -73.68 L 18.48 -73.68 L 18.48 -43.08 L 56.52 -43.08 L 56.52 -37.44 L 18.48 -37.44 L 18.48 -5.52 L 68.52 -5.52 L 68.52 0 Z" stroke-linecap="round" />
</g>
</g>
</g>
<g transform="matrix(0 -1.0721619001216145 -1.0721619001216145 0 303.8667222049265 423.1067782097748)" id="shape-6078f027-ffb0-4ad7-9cb9-c993bce4681a"  >
<g style=""  paint-order="stroke"   >
		<g transform="matrix(1 0 0 1 0 0)" id="Layer_1"  >
<path style="stroke: none; stroke-width: 1; stroke-dasharray: none; stroke-linecap: butt; stroke-dashoffset: 0; stroke-linejoin: miter; stroke-miterlimit: 4; fill: rgb(66,66,66); fill-rule: nonzero; opacity: 1;"  paint-order="stroke"  transform=" translate(-100, -1.5)" d="M 198.5 3 L 1.5 3 C 0.7 3 0 2.3 0 1.5 C 0 0.7000000000000002 0.7 0 1.5 0 L 198.5 0 C 199.3 0 200 0.7 200 1.5 C 200 2.3 199.3 3 198.5 3 z" stroke-linecap="round" />
</g>
</g>
</g>
<g transform="matrix(0.9161853050260499 0 0 -0.9161853050260497 417.7050783622933 292.199314831136)" id="shape-aacb94be-af4b-4934-ba86-f3d7f263f41a"  >
<g style=""  paint-order="stroke"   >
		<g transform="matrix(1 0 0 1 0 0)" id="Layer_1"  >
<path style="stroke: none; stroke-width: 1; stroke-dasharray: none; stroke-linecap: butt; stroke-dashoffset: 0; stroke-linejoin: miter; stroke-miterlimit: 4; fill: rgb(66,66,66); fill-rule: nonzero; opacity: 1;"  paint-order="stroke"  transform=" translate(-100, -1.5)" d="M 198.5 3 L 1.5 3 C 0.7 3 0 2.3 0 1.5 C 0 0.7000000000000002 0.7 0 1.5 0 L 198.5 0 C 199.3 0 200 0.7 200 1.5 C 200 2.3 199.3 3 198.5 3 z" stroke-linecap="round" />
</g>
</g>
</g>
<g transform="matrix(0.8917263863650937 0 0 -0.8917263863650937 663.5116191252254 745.1619030262876)" id="shape-5ddf40ac-3856-422d-8875-1605e51157db"  >
<g style=""  paint-order="stroke"   >
		<g transform="matrix(1 0 0 1 0 0)" id="Layer_1"  >
<path style="stroke: none; stroke-width: 1; stroke-dasharray: none; stroke-linecap: butt; stroke-dashoffset: 0; stroke-linejoin: miter; stroke-miterlimit: 4; fill: rgb(169,200,255); fill-rule: nonzero; opacity: 1;"  paint-order="stroke"  transform=" translate(-100, -1.5)" d="M 198.5 3 L 1.5 3 C 0.7 3 0 2.3 0 1.5 C 0 0.7000000000000002 0.7 0 1.5 0 L 198.5 0 C 199.3 0 200 0.7 200 1.5 C 200 2.3 199.3 3 198.5 3 z" stroke-linecap="round" />
</g>
</g>
</g>
<g transform="matrix(0 -0.8995771127012685 -0.8995771127012684 0 765.6139727092725 632.5955743581738)" id="shape-9d53d1b8-9fe8-45e5-ae53-6beabfb00b6f"  >
<g style=""  paint-order="stroke"   >
		<g transform="matrix(1 0 0 1 0 0)" id="Layer_1"  >
<path style="stroke: none; stroke-width: 1; stroke-dasharray: none; stroke-linecap: butt; stroke-dashoffset: 0; stroke-linejoin: miter; stroke-miterlimit: 4; fill: rgb(169,200,255); fill-rule: nonzero; opacity: 1;"  paint-order="stroke"  transform=" translate(-100, -1.5)" d="M 198.5 3 L 1.5 3 C 0.7 3 0 2.3 0 1.5 C 0 0.7000000000000002 0.7 0 1.5 0 L 198.5 0 C 199.3 0 200 0.7 200 1.5 C 200 2.3 199.3 3 198.5 3 z" stroke-linecap="round" />
</g>
</g>
</g>
<g transform="matrix(0.8552690807909104 0 0 -0.8552690807909104 771.1571972740153 234.52779264118863)" id="shape-396b639d-93e4-41e3-a498-832cc32f782e"  >
<g style=""  paint-order="stroke"   >
		<g transform="matrix(1 0 0 1 0 0)" id="Layer_1"  >
<path style="stroke: none; stroke-width: 1; stroke-dasharray: none; stroke-linecap: butt; stroke-dashoffset: 0; stroke-linejoin: miter; stroke-miterlimit: 4; fill: rgb(66,66,66); fill-rule: nonzero; opacity: 1;"  paint-order="stroke"  transform=" translate(-100, -1.5)" d="M 198.5 3 L 1.5 3 C 0.7 3 0 2.3 0 1.5 C 0 0.7000000000000002 0.7 0 1.5 0 L 198.5 0 C 199.3 0 200 0.7 200 1.5 C 200 2.3 199.3 3 198.5 3 z" stroke-linecap="round" />
</g>
</g>
</g>
<g transform="matrix(0 -1.0721619001216145 -1.0721619001216145 0 886.7830263433564 356.65341628796523)" id="shape-19f83678-2d52-417d-81fb-a3c40b901abf"  >
<g style=""  paint-order="stroke"   >
		<g transform="matrix(1 0 0 1 0 0)" id="Layer_1"  >
<path style="stroke: none; stroke-width: 1; stroke-dasharray: none; stroke-linecap: butt; stroke-dashoffset: 0; stroke-linejoin: miter; stroke-miterlimit: 4; fill: rgb(66,66,66); fill-rule: nonzero; opacity: 1;"  paint-order="stroke"  transform=" translate(-100, -1.5)" d="M 198.5 3 L 1.5 3 C 0.7 3 0 2.3 0 1.5 C 0 0.7000000000000002 0.7 0 1.5 0 L 198.5 0 C 199.3 0 200 0.7 200 1.5 C 200 2.3 199.3 3 198.5 3 z" stroke-linecap="round" />
</g>
</g>
</g>
</svg>